<?xml version="1.0" encoding="UTF-8" standalone="no"?>
<svg
   height="48"
   width="48"
   version="1.1"
   id="svg4"
   sodipodi:docname="delete.svg"
   inkscape:version="1.1.1 (3bf5ae0d25, 2021-09-20)"
   xmlns:inkscape="http://www.inkscape.org/namespaces/inkscape"
   xmlns:sodipodi="http://sodipodi.sourceforge.net/DTD/sodipodi-0.dtd"
   xmlns="http://www.w3.org/2000/svg"
   xmlns:svg="http://www.w3.org/2000/svg">
  <defs
     id="defs8" />
  <sodipodi:namedview
     id="namedview6"
     pagecolor="#ffffff"
     bordercolor="#666666"
     borderopacity="1.0"
     inkscape:pageshadow="2"
     inkscape:pageopacity="0.0"
     inkscape:pagecheckerboard="0"
     showgrid="false"
     inkscape:zoom="17.333333"
     inkscape:cx="23.971154"
     inkscape:cy="24.028846"
     inkscape:window-width="1920"
     inkscape:window-height="1017"
     inkscape:window-x="-8"
     inkscape:window-y="-8"
     inkscape:window-maximized="1"
     inkscape:current-layer="svg4" />
  <path
     d="M13.05 42Q11.85 42 10.95 41.1Q10.05 40.2 10.05 39V10.5H8V7.5H17.4V6H30.6V7.5H40V10.5H37.95V39Q37.95 40.2 37.05 41.1Q36.15 42 34.95 42ZM34.95 10.5H13.05V39Q13.05 39 13.05 39Q13.05 39 13.05 39H34.95Q34.95 39 34.95 39Q34.95 39 34.95 39ZM18.35 34.7H21.35V14.75H18.35ZM26.65 34.7H29.65V14.75H26.65ZM13.05 10.5V39Q13.05 39 13.05 39Q13.05 39 13.05 39Q13.05 39 13.05 39Q13.05 39 13.05 39Z"
     id="path2"
     style="fill:#cccccc" />
</svg>
