<?xml version="1.0" encoding="UTF-8" standalone="no"?>
<svg
   height="48"
   width="48"
   version="1.1"
   id="svg4"
   sodipodi:docname="calendar.svg"
   inkscape:version="1.1.1 (3bf5ae0d25, 2021-09-20)"
   xmlns:inkscape="http://www.inkscape.org/namespaces/inkscape"
   xmlns:sodipodi="http://sodipodi.sourceforge.net/DTD/sodipodi-0.dtd"
   xmlns="http://www.w3.org/2000/svg"
   xmlns:svg="http://www.w3.org/2000/svg">
  <defs
     id="defs8" />
  <sodipodi:namedview
     id="namedview6"
     pagecolor="#ffffff"
     bordercolor="#666666"
     borderopacity="1.0"
     inkscape:pageshadow="2"
     inkscape:pageopacity="0.0"
     inkscape:pagecheckerboard="0"
     showgrid="false"
     inkscape:zoom="17.333333"
     inkscape:cx="23.971154"
     inkscape:cy="24.028846"
     inkscape:window-width="1920"
     inkscape:window-height="1017"
     inkscape:window-x="-8"
     inkscape:window-y="-8"
     inkscape:window-maximized="1"
     inkscape:current-layer="svg4" />
  <path
     d="M9 44q-1.2 0-2.1-.9Q6 42.2 6 41V10q0-1.2.9-2.1Q7.8 7 9 7h3.25V4h3.25v3h17V4h3.25v3H39q1.2 0 2.1.9.9.9.9 2.1v31q0 1.2-.9 2.1-.9.9-2.1.9Zm0-3h30V19.5H9V41Zm0-24.5h30V10H9Zm0 0V10v6.5ZM24 28q-.85 0-1.425-.575Q22 26.85 22 26q0-.85.575-1.425Q23.15 24 24 24q.85 0 1.425.575Q26 25.15 26 26q0 .85-.575 1.425Q24.85 28 24 28Zm-8 0q-.85 0-1.425-.575Q14 26.85 14 26q0-.85.575-1.425Q15.15 24 16 24q.85 0 1.425.575Q18 25.15 18 26q0 .85-.575 1.425Q16.85 28 16 28Zm16 0q-.85 0-1.425-.575Q30 26.85 30 26q0-.85.575-1.425Q31.15 24 32 24q.85 0 1.425.575Q34 25.15 34 26q0 .85-.575 1.425Q32.85 28 32 28Zm-8 8q-.85 0-1.425-.575Q22 34.85 22 34q0-.85.575-1.425Q23.15 32 24 32q.85 0 1.425.575Q26 33.15 26 34q0 .85-.575 1.425Q24.85 36 24 36Zm-8 0q-.85 0-1.425-.575Q14 34.85 14 34q0-.85.575-1.425Q15.15 32 16 32q.85 0 1.425.575Q18 33.15 18 34q0 .85-.575 1.425Q16.85 36 16 36Zm16 0q-.85 0-1.425-.575Q30 34.85 30 34q0-.85.575-1.425Q31.15 32 32 32q.85 0 1.425.575Q34 33.15 34 34q0 .85-.575 1.425Q32.85 36 32 36Z"
     id="path2"
     style="fill:#002677;fill-opacity:1" />
</svg>
